<?xml version="1.0" encoding="utf-8"?><svg xmlns="http://www.w3.org/2000/svg" xmlns:xlink="http://www.w3.org/1999/xlink" width="1366" height="669" preserveAspectRatio="xMidYMid" viewBox="0 0 1366 669" style="z-index:1;margin-right:-2px;display:block;background-repeat-y:initial;background-repeat-x:initial;background-color:rgb(255, 255, 255);animation-play-state:paused" ><g transform="translate(683,334.5) scale(1,1) translate(-683,-334.5)" style="transform:matrix(1, 0, 0, 1, 0, 0);animation-play-state:paused" ><path id="path0" d="M 1327.68743923303 244.0999171922285
c 0 24.062408357904076 -5.88761055565738 6.911542826206491 -12.79915338186387 6.911542826206491
S 1302.0891324693025 268.16232555013255 1302.0891324693025 244.0999171922285
s 5.88761055565738 -6.911542826206491 12.79915338186387 -6.911542826206491
S 1327.68743923303 220.03750883432443 1327.68743923303 244.0999171922285
z" fill="none" stroke="none" style="animation-play-state:paused" ></path>


<circle cx="0" cy="0" r="7.9003522025214945" fill="#de9dd6" transform="translate(1302.1688232421875 239.75819396972656)" style="animation-play-state:paused" ></circle>
<path id="path1" d="M 413.45953733668836 590.7622201535214
c 0 29.073725386083265 -7.1137838710629255 8.350963674726044 -15.46474754578897 8.350963674726044
S 382.53004224511045 619.8359455396047 382.53004224511045 590.7622201535214
s 7.1137838710629255 -8.350963674726044 15.46474754578897 -8.350963674726044
S 413.45953733668836 561.6884947674381 413.45953733668836 590.7622201535214
z" fill="none" stroke="none" style="animation-play-state:paused" ></path>


<circle cx="0" cy="0" r="6.026267053454846" fill="#51cacc" transform="translate(413.43597412109375 588.0296020507812)" style="animation-play-state:paused" ></circle>
<path id="path2" d="M 166.28759632568958 476.13259093284495
c 0 30.29309559595157 -7.4121404117753835 8.70120830947545 -16.113348721250837 8.70120830947545
S 134.0608988831879 506.4256865287965 134.0608988831879 476.13259093284495
s 7.4121404117753835 -8.70120830947545 16.113348721250837 -8.70120830947545
S 166.28759632568958 445.8394953368934 166.28759632568958 476.13259093284495
z" fill="none" stroke="none" style="animation-play-state:paused" ></path>


<circle cx="0" cy="0" r="5.619533184905472" fill="#51cacc" transform="translate(166.28634643554688 476.7793884277344)" style="animation-play-state:paused" ></circle>
<path id="path3" d="M 1079.1615071179497 660.6412080851763
c 0 19.959679448475367 -4.883751354414185 5.733099416051435 -10.61685077046562 5.733099416051435
S 1057.9278055770185 680.6008875336518 1057.9278055770185 660.6412080851763
s 4.883751354414185 -5.733099416051435 10.61685077046562 -5.733099416051435
S 1079.1615071179497 640.6815286367009 1079.1615071179497 660.6412080851763
z" fill="none" stroke="none" style="animation-play-state:paused" ></path>


<circle cx="0" cy="0" r="4.463332902106897" fill="#9df871" transform="translate(1062.6566162109375 651.4513549804688)" style="animation-play-state:paused" ></circle>
<path id="path4" d="M 614.0118851181961 557.6827827060116
c 0 35.868788622973234 -8.776405726897705 10.302737157662525 -19.07914288456023 10.302737157662525
S 575.8535993490756 593.5515713289849 575.8535993490756 557.6827827060116
s 8.776405726897705 -10.302737157662525 19.07914288456023 -10.302737157662525
S 614.0118851181961 521.8139940830383 614.0118851181961 557.6827827060116
z" fill="none" stroke="none" style="animation-play-state:paused" ></path>


<circle cx="0" cy="0" r="5.336185486693961" fill="#de9dd6" transform="translate(601.96142578125 571.1810302734375)" style="animation-play-state:paused" ></circle>
<path id="path5" d="M 1193.380939712012 224.40639504823747
c 0 20.22502458142919 -4.948676227370971 5.809315571261576 -10.757991798632547 5.809315571261576
S 1171.864956114747 244.63141962966665 1171.864956114747 224.40639504823747
s 4.948676227370971 -5.809315571261576 10.757991798632547 -5.809315571261576
S 1193.380939712012 204.1813704668083 1193.380939712012 224.40639504823747
z" fill="none" stroke="none" style="animation-play-state:paused" ></path>


<circle cx="0" cy="0" r="5.871769109889087" fill="#9df871" transform="translate(1187.5074462890625 216.03025817871094)" style="animation-play-state:paused" ></circle>
<path id="path6" d="M 1097.4098802789467 100.55254075588756
c 0 19.183030725164606 -4.693720283816871 5.510019463611111 -10.203739747427981 5.510019463611111
S 1077.0024007840907 119.73557148105218 1077.0024007840907 100.55254075588756
s 4.693720283816871 -5.510019463611111 10.203739747427981 -5.510019463611111
S 1097.4098802789467 81.36951003072295 1097.4098802789467 100.55254075588756
z" fill="none" stroke="none" style="animation-play-state:paused" ></path>


<circle cx="0" cy="0" r="7.384140766148401" fill="#e0ff77" transform="translate(1093.820556640625 90.95817565917969)" style="animation-play-state:paused" ></circle>
<path id="path7" d="M 211.48575470523008 470.49972176730597
c 0 31.7979286029111 -7.780344232627184 9.133447577431912 -16.913791810059095 9.133447577431912
S 177.65817108511192 502.29765037021707 177.65817108511192 470.49972176730597
s 7.780344232627184 -9.133447577431912 16.913791810059095 -9.133447577431912
S 211.48575470523008 438.70179316439487 211.48575470523008 470.49972176730597
z" fill="none" stroke="none" style="animation-play-state:paused" ></path>


<circle cx="0" cy="0" r="6.687765712228402" fill="#51cacc" transform="translate(178.07749938964844 480.6799011230469)" style="animation-play-state:paused" ></circle>
<path id="path8" d="M 664.4043746721417 579.5394448351735
c 0 27.953271013857023 -6.83963014168842 8.029131035895103 -14.868761177583522 8.029131035895103
S 634.6668523169745 607.4927158490306 634.6668523169745 579.5394448351735
s 6.83963014168842 -8.029131035895103 14.868761177583522 -8.029131035895103
S 664.4043746721417 551.5861738213165 664.4043746721417 579.5394448351735
z" fill="none" stroke="none" style="animation-play-state:paused" ></path>


<circle cx="0" cy="0" r="4.176550646031834" fill="#9df871" transform="translate(655.5050659179688 568.622314453125)" style="animation-play-state:paused" ></circle>
<path id="path9" d="M 150.26312681561964 576.4633336684569
c 0 31.788878692445287 -7.778129892832356 9.130848135064072 -16.908978027896428 9.130848135064072
S 116.44517075982678 608.2522123609023 116.44517075982678 576.4633336684569
s 7.778129892832356 -9.130848135064072 16.908978027896428 -9.130848135064072
S 150.26312681561964 544.6744549760116 150.26312681561964 576.4633336684569
z" fill="none" stroke="none" style="animation-play-state:paused" ></path>


<circle cx="0" cy="0" r="7.545929808089547" fill="#51cacc" transform="translate(118.08689880371094 591.9610595703125)" style="animation-play-state:paused" ></circle>
<path id="path10" d="M 300.19389900739935 370.9908953932614
c 0 19.313712915326832 -4.72569571332465 5.547555837381112 -10.273251550705762 5.547555837381112
S 279.6473959059878 390.30460830858823 279.6473959059878 370.9908953932614
s 4.72569571332465 -5.547555837381112 10.273251550705762 -5.547555837381112
S 300.19389900739935 351.67718247793454 300.19389900739935 370.9908953932614
z" fill="none" stroke="none" style="animation-play-state:paused" ></path>


<circle cx="0" cy="0" r="6.237205610148839" fill="#51cacc" transform="translate(300.193603515625 371.15057373046875)" style="animation-play-state:paused" ></circle>
<path id="path11" d="M 894.6522784530902 441.60085996013316
c 0 25.78355612533785 -6.308742456199686 7.405915057277894 -13.71465751347758 7.405915057277894
S 867.2229634261349 467.384416085471 867.2229634261349 441.60085996013316
s 6.308742456199686 -7.405915057277894 13.71465751347758 -7.405915057277894
S 894.6522784530902 415.8173038347953 894.6522784530902 441.60085996013316
z" fill="none" stroke="none" style="animation-play-state:paused" ></path>


<circle cx="0" cy="0" r="7.829153997584998" fill="#e0ff77" transform="translate(870.4119873046875 427.8816833496094)" style="animation-play-state:paused" ></circle>
<path id="path12" d="M 559.2166068590109 95.49853246495364
c 0 20.064775659590502 -4.90946638479342 5.763286625627059 -10.672753010420479 5.763286625627059
S 537.8711008381699 115.56330812454414 537.8711008381699 95.49853246495364
s 4.90946638479342 -5.763286625627059 10.672753010420479 -5.763286625627059
S 559.2166068590109 75.43375680536315 559.2166068590109 95.49853246495364
z" fill="none" stroke="none" style="animation-play-state:paused" ></path>


<circle cx="0" cy="0" r="7.652236387991327" fill="#9df871" transform="translate(555.95751953125 85.13990020751953)" style="animation-play-state:paused" ></circle>
<path id="path13" d="M 64.10909465014548 579.8130652309209
c 0 35.343571843262936 -8.647895238245185 10.151877018809566 -18.79977225705475 10.151877018809566
S 26.50955013603598 615.1566370741838 26.50955013603598 579.8130652309209
s 8.647895238245185 -10.151877018809566 18.79977225705475 -10.151877018809566
S 64.10909465014548 544.469493387658 64.10909465014548 579.8130652309209
z" fill="none" stroke="none" style="animation-play-state:paused" ></path>


<circle cx="0" cy="0" r="6.294355258914658" fill="#51cacc" transform="translate(63.57781982421875 591.6920166015625)" style="animation-play-state:paused" ></circle>
<path id="path14" d="M 1176.6541639854763 244.53103191825113
c 0 22.7808168232439 -5.574029648240527 6.543426108804098 -12.117455757044626 6.543426108804098
S 1152.4192524713872 267.31184874149506 1152.4192524713872 244.53103191825113
s 5.574029648240527 -6.543426108804098 12.117455757044626 -6.543426108804098
S 1176.6541639854763 221.75021509500723 1176.6541639854763 244.53103191825113
z" fill="none" stroke="none" style="animation-play-state:paused" ></path>


<circle cx="0" cy="0" r="6.778165987218345" fill="#51cacc" transform="translate(1160.59521484375 236.35830688476562)" style="animation-play-state:paused" ></circle>
<path id="path15" d="M 1065.3404291735742 163.97294543548182
c 0 19.317101055764255 -4.726524726410402 5.54852902665569 -10.275053753066093 5.54852902665569
S 1044.7903216674422 183.29004649124607 1044.7903216674422 163.97294543548182
s 4.726524726410402 -5.54852902665569 10.275053753066093 -5.54852902665569
S 1065.3404291735742 144.65584437971756 1065.3404291735742 163.97294543548182
z" fill="none" stroke="none" style="animation-play-state:paused" ></path>


<circle cx="0" cy="0" r="4.336264610796952" fill="#9df871" transform="translate(1044.837890625 160.92257690429688)" style="animation-play-state:paused" ></circle>
<path id="path16" d="M 125.96256338135899 247.41502520906917
c 0 25.49139802939621 -6.2372569646394975 7.321997306315932 -13.55925427095543 7.321997306315932
S 98.84405483944812 272.9064232384654 98.84405483944812 247.41502520906917
s 6.2372569646394975 -7.321997306315932 13.55925427095543 -7.321997306315932
S 125.96256338135899 221.92362717967296 125.96256338135899 247.41502520906917
z" fill="none" stroke="none" style="animation-play-state:paused" ></path>


<circle cx="0" cy="0" r="4.282979169607123" fill="#e0ff77" transform="translate(118.95841979980469 258.31719970703125)" style="animation-play-state:paused" ></circle>
<path id="path17" d="M 54.50536657055984 559.6938163173894
c 0 20.585588144234997 -5.0368992267809025 5.912881701003669 -10.949780927784571 5.912881701003669
S 32.6058047149907 580.2794044616244 32.6058047149907 559.6938163173894
s 5.0368992267809025 -5.912881701003669 10.949780927784571 -5.912881701003669
S 54.50536657055984 539.1082281731544 54.50536657055984 559.6938163173894
z" fill="none" stroke="none" style="animation-play-state:paused" ></path>


<circle cx="0" cy="0" r="5.801317095358488" fill="#51cacc" transform="translate(54.39102554321289 555.0454711914062)" style="animation-play-state:paused" ></circle>
<path id="path18" d="M 591.2807510862399 450.9705105630322
c 0 31.34996744578313 -7.670736715457574 9.00477788336324 -16.67551459882081 9.00477788336324
S 557.9297218885984 482.3204780088153 557.9297218885984 450.9705105630322
s 7.670736715457574 -9.00477788336324 16.67551459882081 -9.00477788336324
S 591.2807510862399 419.62054311724904 591.2807510862399 450.9705105630322
z" fill="none" stroke="none" style="animation-play-state:paused" ></path>


<circle cx="0" cy="0" r="6.7777785036291585" fill="#51cacc" transform="translate(576.8091430664062 460.3912353515625)" style="animation-play-state:paused" ></circle>
<path id="path19" d="M 468.9308273724838 183.01025651095358
c 0 36.21340777642101 -8.860727434656203 10.401723510248587 -19.26245094490479 10.401723510248587
S 430.4059254826742 219.2236642873746 430.4059254826742 183.01025651095358
s 8.860727434656203 -10.401723510248587 19.26245094490479 -10.401723510248587
S 468.9308273724838 146.79684873453257 468.9308273724838 183.01025651095358
z" fill="none" stroke="none" style="animation-play-state:paused" ></path>


<circle cx="0" cy="0" r="7.666348139494103" fill="#51cacc" transform="translate(465.3500671386719 163.73831176757812)" style="animation-play-state:paused" ></circle>
<path id="path20" d="M 926.4238792101538 360.09009993515986
c 0 33.40532226045603 -8.173642680749879 9.595145755662903 -17.76878843641278 9.595145755662903
S 890.8863023373282 393.4954221956159 890.8863023373282 360.09009993515986
s 8.173642680749879 -9.595145755662903 17.76878843641278 -9.595145755662903
S 926.4238792101538 326.6847776747038 926.4238792101538 360.09009993515986
z" fill="none" stroke="none" style="animation-play-state:paused" ></path>


<circle cx="0" cy="0" r="5.962522330853976" fill="#ff708e" transform="translate(926.3569946289062 364.8882751464844)" style="animation-play-state:paused" ></circle>
<path id="path21" d="M 906.801549536004 165.8639706486775
c 0 30.082066258127007 -7.360505573797033 8.640593499674779 -16.001099073471813 8.640593499674779
S 874.7993513890605 195.94603690680452 874.7993513890605 165.8639706486775
s 7.360505573797033 -8.640593499674779 16.001099073471813 -8.640593499674779
S 906.801549536004 135.7819043905505 906.801549536004 165.8639706486775
z" fill="none" stroke="none" style="animation-play-state:paused" ></path>


<circle cx="0" cy="0" r="4.230564630441971" fill="#9df871" transform="translate(876.8881225585938 181.3350830078125)" style="animation-play-state:paused" ></circle>
<path id="path22" d="M 893.1571204868121 356.3387732614478
c 0 19.266777350524737 -4.714211479383712 5.534074345363488 -10.248285824747201 5.534074345363488
S 872.6605488373177 375.60555061197255 872.6605488373177 356.3387732614478
s 4.714211479383712 -5.534074345363488 10.248285824747201 -5.534074345363488
S 893.1571204868121 337.071995910923 893.1571204868121 356.3387732614478
z" fill="none" stroke="none" style="animation-play-state:paused" ></path>


<circle cx="0" cy="0" r="4.2180565155695415" fill="#51cacc" transform="translate(892.5679321289062 364.5492858886719)" style="animation-play-state:paused" ></circle>
<path id="path23" d="M 487.4527994724023 232.58127566156733
c 0 21.10710439832564 -5.164504267675422 6.062678922923322 -11.227183190598744 6.062678922923322
S 464.99843309120484 253.68838005989298 464.99843309120484 232.58127566156733
s 5.164504267675422 -6.062678922923322 11.227183190598744 -6.062678922923322
S 487.4527994724023 211.4741712632417 487.4527994724023 232.58127566156733
z" fill="none" stroke="none" style="animation-play-state:paused" ></path>


<circle cx="0" cy="0" r="5.979547191333723" fill="#51cacc" transform="translate(480.37628173828125 224.626708984375)" style="animation-play-state:paused" ></circle>
<path id="path24" d="M 1131.2271363903676 104.62040607476239
c 0 24.504732936645027 -5.995838910030165 7.038593503078891 -13.034432413109055 7.038593503078891
S 1105.1582715641496 129.1251390114074 1105.1582715641496 104.62040607476239
s 5.995838910030165 -7.038593503078891 13.034432413109055 -7.038593503078891
S 1131.2271363903676 80.11567313811736 1131.2271363903676 104.62040607476239
z" fill="none" stroke="none" style="animation-play-state:paused" ></path>


<circle cx="0" cy="0" r="6.84159643862611" fill="#51cacc" transform="translate(1131.1767578125 108.1888656616211)" style="animation-play-state:paused" ></circle>
<path id="path25" d="M 852.8496471190997 113.59744433737988
c 0 22.73507576671861 -5.562837687601361 6.530287720227685 -12.093125407829046 6.530287720227685
S 828.6633963034417 136.33252010409848 828.6633963034417 113.59744433737988
s 5.562837687601361 -6.530287720227685 12.093125407829046 -6.530287720227685
S 852.8496471190997 90.86236857066127 852.8496471190997 113.59744433737988
z" fill="none" stroke="none" style="animation-play-state:paused" ></path>


<circle cx="0" cy="0" r="6.266063212407971" fill="#e0ff77" transform="translate(829.6661987304688 124.2920913696289)" style="animation-play-state:paused" ></circle>
<path id="path26" d="M 220.78244526074545 215.85029755285922
c 0 32.056559765966014 -7.843626325715088 9.20773525192641 -17.051361577641497 9.20773525192641
S 186.67972210546245 247.90685731882525 186.67972210546245 215.85029755285922
s 7.843626325715088 -9.20773525192641 17.051361577641497 -9.20773525192641
S 220.78244526074545 183.7937377868932 220.78244526074545 215.85029755285922
z" fill="none" stroke="none" style="animation-play-state:paused" ></path>


<circle cx="0" cy="0" r="5.8698014292371905" fill="#de9dd6" transform="translate(217.48707580566406 198.7676544189453)" style="animation-play-state:paused" ></circle>
<path id="path27" d="M 1316.6946351782785 390.0581647751541
c 0 27.50935247066532 -6.731011774737259 7.901622518169827 -14.632634292907085 7.901622518169827
S 1287.4293665924642 417.56751724581943 1287.4293665924642 390.0581647751541
s 6.731011774737259 -7.901622518169827 14.632634292907085 -7.901622518169827
S 1316.6946351782785 362.5488123044888 1316.6946351782785 390.0581647751541
z" fill="none" stroke="none" style="animation-play-state:paused" ></path>


<circle cx="0" cy="0" r="4.2598515133551285" fill="#ff708e" transform="translate(1306.8232421875 380.1878967285156)" style="animation-play-state:paused" ></circle>
<path id="path28" d="M 480.25350421817853 153.277612004792
c 0 32.89967224583817 -8.049919804832742 9.449905857847133 -17.499825662679875 9.449905857847133
S 445.25385289281877 186.17728425063015 445.25385289281877 153.277612004792
s 8.049919804832742 -9.449905857847133 17.499825662679875 -9.449905857847133
S 480.25350421817853 120.37793975895383 480.25350421817853 153.277612004792
z" fill="none" stroke="none" style="animation-play-state:paused" ></path>


<circle cx="0" cy="0" r="6.963828671405951" fill="#ff708e" transform="translate(453.45538330078125 138.47946166992188)" style="animation-play-state:paused" ></circle>
<path id="path29" d="M 154.96909858207547 213.6354536129474
c 0 20.772739236517303 -5.082691515318063 5.966637865808162 -11.049329381126224 5.966637865808162
S 132.87043981982302 234.4081928494647 132.87043981982302 213.6354536129474
s 5.082691515318063 -5.966637865808162 11.049329381126224 -5.966637865808162
S 154.96909858207547 192.8627143764301 154.96909858207547 213.6354536129474
z" fill="none" stroke="none" style="animation-play-state:paused" ></path>


<circle cx="0" cy="0" r="5.817116307142717" fill="#51cacc" transform="translate(138.9927520751953 222.16140747070312)" style="animation-play-state:paused" ></circle></g></svg>